<svg width="24" height="24" viewBox="0 0 24 24" fill="none" xmlns="http://www.w3.org/2000/svg">
<path d="M8 2H3C2.73478 2 2.48043 2.10536 2.29289 2.29289C2.10536 2.48043 2 2.73478 2 3V8C2 8.26522 2.10536 8.51957 2.29289 8.70711C2.48043 8.89464 2.73478 9 3 9C3.26522 9 3.51957 8.89464 3.70711 8.70711C3.89464 8.51957 4 8.26522 4 8V4H8C8.26522 4 8.51957 3.89464 8.70711 3.70711C8.89464 3.51957 9 3.26522 9 3C9 2.73478 8.89464 2.48043 8.70711 2.29289C8.51957 2.10536 8.26522 2 8 2ZM8 20H4V16C4 15.7348 3.89464 15.4804 3.70711 15.2929C3.51957 15.1054 3.26522 15 3 15C2.73478 15 2.48043 15.1054 2.29289 15.2929C2.10536 15.4804 2 15.7348 2 16V21C2 21.2652 2.10536 21.5196 2.29289 21.7071C2.48043 21.8946 2.73478 22 3 22H8C8.26522 22 8.51957 21.8946 8.70711 21.7071C8.89464 21.5196 9 21.2652 9 21C9 20.7348 8.89464 20.4804 8.70711 20.2929C8.51957 20.1054 8.26522 20 8 20ZM21 2H16C15.7348 2 15.4804 2.10536 15.2929 2.29289C15.1054 2.48043 15 2.73478 15 3C15 3.26522 15.1054 3.51957 15.2929 3.70711C15.4804 3.89464 15.7348 4 16 4H20V8C20 8.26522 20.1054 8.51957 20.2929 8.70711C20.4804 8.89464 20.7348 9 21 9C21.2652 9 21.5196 8.89464 21.7071 8.70711C21.8946 8.51957 22 8.26522 22 8V3C22 2.73478 21.8946 2.48043 21.7071 2.29289C21.5196 2.10536 21.2652 2 21 2ZM21 15C20.7348 15 20.4804 15.1054 20.2929 15.2929C20.1054 15.4804 20 15.7348 20 16V20H16C15.7348 20 15.4804 20.1054 15.2929 20.2929C15.1054 20.4804 15 20.7348 15 21C15 21.2652 15.1054 21.5196 15.2929 21.7071C15.4804 21.8946 15.7348 22 16 22H21C21.2652 22 21.5196 21.8946 21.7071 21.7071C21.8946 21.5196 22 21.2652 22 21V16C22 15.7348 21.8946 15.4804 21.7071 15.2929C21.5196 15.1054 21.2652 15 21 15Z" fill="black"/>
<path d="M21.92 2.62C21.8185 2.37565 21.6243 2.18147 21.38 2.08C21.2598 2.02876 21.1307 2.00158 21 2H15C14.7348 2 14.4804 2.10536 14.2929 2.29289C14.1054 2.48043 14 2.73478 14 3C14 3.26522 14.1054 3.51957 14.2929 3.70711C14.4804 3.89464 14.7348 4 15 4H18.59L4 18.59V15C4 14.7348 3.89464 14.4804 3.70711 14.2929C3.51957 14.1054 3.26522 14 3 14C2.73478 14 2.48043 14.1054 2.29289 14.2929C2.10536 14.4804 2 14.7348 2 15V21C2.00158 21.1307 2.02876 21.2598 2.08 21.38C2.18147 21.6243 2.37565 21.8185 2.62 21.92C2.74022 21.9712 2.86932 21.9984 3 22H9C9.26522 22 9.51957 21.8946 9.70711 21.7071C9.89464 21.5196 10 21.2652 10 21C10 20.7348 9.89464 20.4804 9.70711 20.2929C9.51957 20.1054 9.26522 20 9 20H5.41L20 5.41V9C20 9.26522 20.1054 9.51957 20.2929 9.70711C20.4804 9.89464 20.7348 10 21 10C21.2652 10 21.5196 9.89464 21.7071 9.70711C21.8946 9.51957 22 9.26522 22 9V3C21.9984 2.86932 21.9712 2.74022 21.92 2.62Z" fill="black"/>
</svg>
